<svg fill="none" height="67" viewBox="0 0 240 67" width="240" xmlns="http://www.w3.org/2000/svg"><path clip-rule="evenodd" d="m43.9304 5.76706h-7v-5.090913h20.2273v5.090913h-7v18.18184h-6.2273zm21.9233 18.18184h-6.3182v-23.272753h6.3182v9.090913h8.3636v-9.090913h6.3182v23.272753h-6.3182v-9.0909h-8.3636zm17.6818 0h16.7275v-5.0909h-10.4093v-4h9.5909v-5.09094h-9.5909v-4h10.4543v-5.090913h-16.7725zm46.8265-11.6364c0 7.2727-4.5 11.6364-11.591 11.6364h-8.954v-23.272753h8.863c7.182 0 11.682 4.363633 11.682 11.636353zm-14.227-6.27272v12.54542h2.409c3.455 0 5.455-1.4091 5.455-6.2727 0-4.86362-2-6.27272-5.637-6.27272zm21.727 17.90912 1.341-4.4546h7.682l1.341 4.4546h6.818l-7.682-23.272753h-8.636l-7.682 23.272753zm2.773-9.1818 2.318-7.68186h.182l2.318 7.68186zm16.651-14.090953h6.318v23.272753h-6.318zm9.312 23.272753h15.727v-5.0909h-9.409v-18.181853h-6.318zm21.653-7.3182-8.545-15.954553h7.045l4.546 9.454553h.182l4.545-9.454553h7.046l-8.546 15.954553v7.3182h-6.273zm-159.0791 33.3182c0 10-6.1875 16-15.9375 16h-12.312525v-32h12.187525c9.875 0 16.0625 6 16.0625 16zm-19.56252-8.625v17.25h3.31252c4.75 0 7.5-1.9375 7.5-8.625s-2.75-8.625-7.75-8.625zm46.58202 24.625h-23v-32h23.0625v7h-14.375v5.5h13.1875v7h-13.1875v5.5h14.3125zm4.3711 0h15.0625c6.9531 0 11.25-3.7969 11.25-9.0625 0-4.5157-3.3281-7.4688-7.4375-7.625v-.3125c3.7031-.7344 6.1875-3.4688 6.1875-7 0-4.875-3.875-8-11.1875-8h-13.875zm8.6875-6.9375v-6.75h4.1875c2.6406 0 4.25 1.25 4.25 3.5 0 2.1406-1.4531 3.25-4.375 3.25zm0-12.125v-6.125h3.6875c2.1563 0 3.75 1.0937 3.75 3.0625 0 1.9687-1.5937 3.0625-3.875 3.0625zm34.516 11.9375c2.984 0 5.125-2.1407 5.125-5.125v-19.75h8.687v20.5c0 7.3125-5.594 11.875-13.812 11.875-8.2816 0-13.8129-4.5625-13.8129-11.875v-20.5h8.6875v19.75c0 2.9843 2.1404 5.125 5.1254 5.125zm45.629-24.875h-8.688v16.75h-.25l-11.375-16.75h-7.375v32h8.688v-16.8125h.187l11.563 16.8125h7.25zm12.796 32h-8.687v-32h8.687v12.9375h.438l9.625-12.9375h10.125l-10.813 14.25 11.063 17.75h-10.375l-7.188-12-2.875 3.75zm22.766 0h23v-7h-14.312v-5.5h13.187v-7h-13.187v-5.5h14.375v-7h-23.063zm36.059 0h-8.688v-32h13.813c7.109 0 11.875 4.0625 11.875 10.875 0 4.4375-2.032 7.5468-5.438 9.1875l6.5 11.9375h-9.437l-5.625-10.5625h-3zm0-25.0625v7.75h3.062c3.047 0 4.875-1.0782 4.875-3.8125 0-2.75-1.828-3.9375-4.875-3.9375z" fill="#000" fill-rule="evenodd"/></svg>